<mxfile host="Electron" modified="2023-05-14T06:22:44.493Z" agent="Mozilla/5.0 (Windows NT 10.0; Win64; x64) AppleWebKit/537.36 (KHTML, like Gecko) draw.io/21.2.8 Chrome/112.0.5615.165 Electron/24.2.0 Safari/537.36" etag="TQk1hqT70BHD19xeHIuY" version="21.2.8" type="device">
  <diagram id="prtHgNgQTEPvFCAcTncT" name="Page-1">
    <mxGraphModel dx="918" dy="546" grid="0" gridSize="10" guides="1" tooltips="1" connect="1" arrows="1" fold="1" page="0" pageScale="1" pageWidth="827" pageHeight="1169" background="none" math="0" shadow="0">
      <root>
        <mxCell id="0" />
        <mxCell id="1" parent="0" />
        <mxCell id="dNxyNK7c78bLwvsdeMH5-11" value="Lotus Engine" style="swimlane;html=1;startSize=20;horizontal=1;containerType=tree;glass=0;" parent="1" vertex="1">
          <mxGeometry x="20" y="85" width="860" height="500" as="geometry" />
        </mxCell>
        <mxCell id="MKEkf6L6078pep7PS6sW-4" style="edgeStyle=orthogonalEdgeStyle;rounded=0;orthogonalLoop=1;jettySize=auto;html=1;exitX=0.5;exitY=1;exitDx=0;exitDy=0;" edge="1" parent="dNxyNK7c78bLwvsdeMH5-11" source="dNxyNK7c78bLwvsdeMH5-12" target="MKEkf6L6078pep7PS6sW-1">
          <mxGeometry relative="1" as="geometry" />
        </mxCell>
        <UserObject label="SandboxApp" name="Tessa Miller" position="CFO" location="Office 1" email="me@example.com" placeholders="1" id="dNxyNK7c78bLwvsdeMH5-12">
          <mxCell style="label;whiteSpace=wrap;html=1;rounded=0;glass=0;treeMoving=1;treeFolding=1;" parent="dNxyNK7c78bLwvsdeMH5-11" vertex="1">
            <mxGeometry x="260" y="50" width="180" height="70" as="geometry" />
          </mxCell>
        </UserObject>
        <mxCell id="dNxyNK7c78bLwvsdeMH5-13" value="" style="endArrow=blockThin;endFill=1;fontSize=11;edgeStyle=elbowEdgeStyle;elbow=vertical;rounded=0;" parent="dNxyNK7c78bLwvsdeMH5-11" source="dNxyNK7c78bLwvsdeMH5-12" target="dNxyNK7c78bLwvsdeMH5-14" edge="1">
          <mxGeometry relative="1" as="geometry" />
        </mxCell>
        <mxCell id="MKEkf6L6078pep7PS6sW-5" style="edgeStyle=orthogonalEdgeStyle;rounded=0;orthogonalLoop=1;jettySize=auto;html=1;entryX=0;entryY=0.5;entryDx=0;entryDy=0;" edge="1" parent="dNxyNK7c78bLwvsdeMH5-11" source="dNxyNK7c78bLwvsdeMH5-14" target="MKEkf6L6078pep7PS6sW-1">
          <mxGeometry relative="1" as="geometry" />
        </mxCell>
        <UserObject label="Lotus" name="Edward Morrison" position="Brand Manager" location="Office 2" email="me@example.com" placeholders="1" id="dNxyNK7c78bLwvsdeMH5-14">
          <mxCell style="label;whiteSpace=wrap;html=1;rounded=0;glass=0;treeFolding=1;treeMoving=1;" parent="dNxyNK7c78bLwvsdeMH5-11" vertex="1">
            <mxGeometry x="40" y="180" width="180" height="80" as="geometry" />
          </mxCell>
        </UserObject>
        <UserObject label="ImGui" name="Edward Morrison" position="Brand Manager" location="Office 2" email="me@example.com" placeholders="1" id="MKEkf6L6078pep7PS6sW-1">
          <mxCell style="label;whiteSpace=wrap;html=1;rounded=0;glass=0;treeFolding=1;treeMoving=1;" vertex="1" parent="dNxyNK7c78bLwvsdeMH5-11">
            <mxGeometry x="500" y="180" width="180" height="80" as="geometry" />
          </mxCell>
        </UserObject>
        <mxCell id="MKEkf6L6078pep7PS6sW-6" value="" style="endArrow=blockThin;endFill=1;fontSize=11;edgeStyle=elbowEdgeStyle;elbow=vertical;rounded=0;" edge="1" target="MKEkf6L6078pep7PS6sW-7" source="dNxyNK7c78bLwvsdeMH5-14" parent="dNxyNK7c78bLwvsdeMH5-11">
          <mxGeometry relative="1" as="geometry">
            <mxPoint x="390" y="200" as="sourcePoint" />
          </mxGeometry>
        </mxCell>
        <UserObject label="GLAD" name="Edward Morrison" position="Brand Manager" location="Office 2" email="me@example.com" placeholders="1" id="MKEkf6L6078pep7PS6sW-7">
          <mxCell style="label;whiteSpace=wrap;html=1;rounded=0;glass=0;treeFolding=1;treeMoving=1;" vertex="1" parent="dNxyNK7c78bLwvsdeMH5-11">
            <mxGeometry x="40" y="310" width="180" height="80" as="geometry" />
          </mxCell>
        </UserObject>
        <mxCell id="MKEkf6L6078pep7PS6sW-8" value="" style="endArrow=blockThin;endFill=1;fontSize=11;edgeStyle=elbowEdgeStyle;elbow=vertical;rounded=0;" edge="1" target="MKEkf6L6078pep7PS6sW-9" source="dNxyNK7c78bLwvsdeMH5-14" parent="dNxyNK7c78bLwvsdeMH5-11">
          <mxGeometry relative="1" as="geometry">
            <mxPoint x="390" y="200" as="sourcePoint" />
          </mxGeometry>
        </mxCell>
        <UserObject label="GLFW" name="Edward Morrison" position="Brand Manager" location="Office 2" email="me@example.com" placeholders="1" id="MKEkf6L6078pep7PS6sW-9">
          <mxCell style="label;whiteSpace=wrap;html=1;rounded=0;glass=0;treeFolding=1;treeMoving=1;" vertex="1" parent="dNxyNK7c78bLwvsdeMH5-11">
            <mxGeometry x="240" y="310" width="180" height="80" as="geometry" />
          </mxCell>
        </UserObject>
        <mxCell id="MKEkf6L6078pep7PS6sW-10" value="" style="endArrow=blockThin;endFill=1;fontSize=11;edgeStyle=elbowEdgeStyle;elbow=vertical;rounded=0;" edge="1" target="MKEkf6L6078pep7PS6sW-11" source="dNxyNK7c78bLwvsdeMH5-14" parent="dNxyNK7c78bLwvsdeMH5-11">
          <mxGeometry relative="1" as="geometry">
            <mxPoint x="370" y="205" as="sourcePoint" />
          </mxGeometry>
        </mxCell>
        <UserObject label="Assimp" name="Edward Morrison" position="Brand Manager" location="Office 2" email="me@example.com" placeholders="1" id="MKEkf6L6078pep7PS6sW-11">
          <mxCell style="label;whiteSpace=wrap;html=1;rounded=0;glass=0;treeFolding=1;treeMoving=1;" vertex="1" parent="dNxyNK7c78bLwvsdeMH5-11">
            <mxGeometry x="440" y="310" width="180" height="80" as="geometry" />
          </mxCell>
        </UserObject>
        <mxCell id="MKEkf6L6078pep7PS6sW-12" value="" style="endArrow=blockThin;endFill=1;fontSize=11;edgeStyle=elbowEdgeStyle;elbow=vertical;rounded=0;" edge="1" target="MKEkf6L6078pep7PS6sW-13" source="dNxyNK7c78bLwvsdeMH5-14" parent="dNxyNK7c78bLwvsdeMH5-11">
          <mxGeometry relative="1" as="geometry">
            <mxPoint x="370" y="205" as="sourcePoint" />
          </mxGeometry>
        </mxCell>
        <UserObject label="glm/stb_image&lt;br&gt;entt/spdlog" name="Edward Morrison" position="Brand Manager" location="Office 2" email="me@example.com" placeholders="1" id="MKEkf6L6078pep7PS6sW-13">
          <mxCell style="label;whiteSpace=wrap;html=1;rounded=0;glass=0;treeFolding=1;treeMoving=1;" vertex="1" parent="dNxyNK7c78bLwvsdeMH5-11">
            <mxGeometry x="640" y="310" width="180" height="80" as="geometry" />
          </mxCell>
        </UserObject>
      </root>
    </mxGraphModel>
  </diagram>
</mxfile>
